<?xml version="1.0" encoding="UTF-8"?>
<svg xmlns="http://www.w3.org/2000/svg" xmlns:xlink="http://www.w3.org/1999/xlink" width="75px" height="61px" viewBox="0 0 75 61" version="1.1">
<g id="surface1">
<path style=" stroke:none;fill-rule:nonzero;fill:rgb(78.039216%,98.039216%,45.098039%);fill-opacity:1;" d="M 37.816406 2.921875 L 37.816406 1.09375 C 37.816406 0.691406 37.464844 0.367188 37.066406 0.414062 C 22.03125 2.128906 10.355469 14.941406 10.355469 30.5 L 8.539062 30.5 C 8.136719 30.5 7.816406 30.851562 7.859375 31.253906 C 9.566406 46.351562 22.328125 58.078125 37.816406 58.078125 L 37.816406 59.90625 C 37.816406 60.308594 38.164062 60.632812 38.566406 60.585938 C 53.597656 58.871094 65.273438 46.054688 65.273438 30.5 L 67.09375 30.5 C 67.496094 30.5 67.816406 30.148438 67.769531 29.746094 C 66.066406 14.648438 53.304688 2.921875 37.816406 2.921875 "/>
<path style="fill:none;stroke-width:1.2;stroke-linecap:round;stroke-linejoin:round;stroke:rgb(0%,0%,0%);stroke-opacity:1;stroke-miterlimit:4;" d="M 179.745 2.003714 L 179.745 24.617059 " transform="matrix(0.203804,0,0,0.204698,0,0)"/>
<path style="fill:none;stroke-width:1.2;stroke-linecap:round;stroke-linejoin:round;stroke:rgb(0%,0%,0%);stroke-opacity:1;stroke-miterlimit:4;" d="M 183.386667 2.003714 L 183.386667 24.617059 " transform="matrix(0.203804,0,0,0.204698,0,0)"/>
<path style="fill:none;stroke-width:1.2;stroke-linecap:round;stroke-linejoin:round;stroke:rgb(0%,0%,0%);stroke-opacity:1;stroke-miterlimit:4;" d="M 187.009167 24.617059 L 187.009167 14.006916 " transform="matrix(0.203804,0,0,0.204698,0,0)"/>
<path style="fill:none;stroke-width:1.2;stroke-linecap:round;stroke-linejoin:round;stroke:rgb(0%,0%,0%);stroke-opacity:1;stroke-miterlimit:4;" d="M 156.189167 24.617059 L 156.189167 7.499616 " transform="matrix(0.203804,0,0,0.204698,0,0)"/>
<path style="fill:none;stroke-width:1.2;stroke-linecap:round;stroke-linejoin:round;stroke:rgb(0%,0%,0%);stroke-opacity:1;stroke-miterlimit:4;" d="M 159.830833 24.617059 L 159.830833 6.297387 " transform="matrix(0.203804,0,0,0.204698,0,0)"/>
<path style="fill:none;stroke-width:1.2;stroke-linecap:round;stroke-linejoin:round;stroke:rgb(0%,0%,0%);stroke-opacity:1;stroke-miterlimit:4;" d="M 163.453333 24.617059 L 163.453333 5.495902 " transform="matrix(0.203804,0,0,0.204698,0,0)"/>
<path style="fill:none;stroke-width:1.2;stroke-linecap:round;stroke-linejoin:round;stroke:rgb(0%,0%,0%);stroke-opacity:1;stroke-miterlimit:4;" d="M 179.745 8.053023 L 179.745 24.617059 " transform="matrix(0.203804,0,0,0.204698,0,0)"/>
<path style="fill:none;stroke-width:1.2;stroke-linecap:round;stroke-linejoin:round;stroke:rgb(0%,0%,0%);stroke-opacity:1;stroke-miterlimit:4;" d="M 183.386667 7.251537 L 183.386667 24.617059 " transform="matrix(0.203804,0,0,0.204698,0,0)"/>
<path style="fill:none;stroke-width:2;stroke-linecap:round;stroke-linejoin:round;stroke:rgb(100%,100%,100%);stroke-opacity:1;stroke-miterlimit:4;" d="M 185.5525 14.274078 L 185.5525 5.343238 C 185.5525 3.37769 183.8275 1.793801 181.8725 2.022797 C 108.1 10.400231 50.810833 72.992444 50.810833 149 L 41.898333 149 C 39.924167 149 38.3525 150.717469 38.563333 152.683017 C 46.939167 226.438781 109.556667 283.725922 185.5525 283.725922 L 185.5525 292.656762 C 185.5525 294.62231 187.258333 296.206199 189.2325 295.977203 C 262.985833 287.599769 320.275 224.988473 320.275 149 L 329.206667 149 C 331.180833 149 332.7525 147.282531 332.5225 145.316983 C 324.165833 71.561219 261.548333 14.274078 185.5525 14.274078 " transform="matrix(0.203804,0,0,0.204698,0,0)"/>
<path style="fill-rule:nonzero;fill:rgb(78.039216%,98.039216%,45.098039%);fill-opacity:1;stroke-width:1.2;stroke-linecap:round;stroke-linejoin:round;stroke:rgb(0%,0%,0%);stroke-opacity:1;stroke-miterlimit:4;" d="M 336.164167 195.390753 L 336.164167 180.31519 L 324.625833 188.845287 L 181.374167 136.996798 L 43.125 192.833632 L 31.011667 185.372182 L 31.011667 199.741675 C 31.011667 199.856173 31.011667 199.970671 31.011667 200.104252 C 31.069167 201.211066 31.663333 202.298796 32.851667 202.871286 L 183.750833 275.48207 C 187.699167 277.371286 192.318333 277.237705 196.1325 275.119493 L 334.4775 198.157787 C 335.589167 197.547131 336.125833 196.478484 336.164167 195.390753 Z M 336.164167 195.390753 " transform="matrix(0.203804,0,0,0.204698,0,0)"/>
<path style=" stroke:none;fill-rule:nonzero;fill:rgb(0%,0%,0%);fill-opacity:1;" d="M 38.945312 53.628906 L 38.945312 56.644531 L 39.484375 56.527344 L 68.429688 40.300781 L 68.511719 39.996094 L 68.511719 37.203125 Z M 38.945312 53.628906 "/>
<path style="fill-rule:nonzero;fill:rgb(100%,100%,100%);fill-opacity:1;stroke-width:1.2;stroke-linecap:round;stroke-linejoin:round;stroke:rgb(0%,0%,0%);stroke-opacity:1;stroke-miterlimit:4;" d="M 32.851667 188.158299 L 183.750833 260.75 C 187.699167 262.658299 192.318333 262.505635 196.1325 260.387423 L 334.4775 183.4448 C 336.930833 182.089908 336.643333 178.483222 334.0175 177.529073 L 181.374167 122.283811 L 33.043333 182.185323 C 30.4175 183.25397 30.3025 186.917905 32.851667 188.158299 Z M 32.851667 188.158299 " transform="matrix(0.203804,0,0,0.204698,0,0)"/>
<path style=" stroke:none;fill-rule:nonzero;fill:rgb(78.039216%,98.039216%,45.098039%);fill-opacity:1;" d="M 53.5 42.855469 L 64.980469 36.960938 L 52.261719 32.367188 L 40.496094 37.734375 Z M 53.5 42.855469 "/>
<path style=" stroke:none;fill-rule:nonzero;fill:rgb(0%,0%,0%);fill-opacity:1;" d="M 10.460938 40.332031 L 41.566406 26.703125 L 36.964844 25.027344 L 6.734375 37.292969 L 6.363281 37.667969 L 6.363281 38.164062 L 6.578125 38.445312 Z M 10.460938 40.332031 "/>
<path style=" stroke:none;fill-rule:nonzero;fill:rgb(0%,0%,0%);fill-opacity:1;" d="M 49.34375 41.21875 L 53.5 42.855469 L 64.980469 36.960938 L 59.664062 35.039062 L 54.210938 35.4375 L 54.773438 38.949219 L 49.589844 39.601562 Z M 49.34375 41.21875 "/>
<path style=" stroke:none;fill-rule:nonzero;fill:rgb(0%,0%,0%);fill-opacity:1;" d="M 38.054688 53.585938 L 38.054688 56.609375 L 37.078125 56.210938 L 37.078125 53.195312 Z M 38.054688 53.585938 "/>
<path style=" stroke:none;fill-rule:nonzero;fill:rgb(100%,100%,100%);fill-opacity:1;" d="M 13.066406 37.628906 C 13.75 37.628906 14.304688 37.277344 14.304688 36.835938 C 14.304688 36.398438 13.75 36.042969 13.066406 36.042969 C 12.378906 36.042969 11.824219 36.398438 11.824219 36.835938 C 11.824219 37.277344 12.378906 37.628906 13.066406 37.628906 Z M 13.066406 37.628906 "/>
<path style=" stroke:none;fill-rule:nonzero;fill:rgb(78.039216%,98.039216%,45.098039%);fill-opacity:1;" d="M 10.355469 38.738281 C 11.039062 38.738281 11.597656 38.386719 11.597656 37.945312 C 11.597656 37.507812 11.039062 37.152344 10.355469 37.152344 C 9.667969 37.152344 9.113281 37.507812 9.113281 37.945312 C 9.113281 38.386719 9.667969 38.738281 10.355469 38.738281 Z M 10.355469 38.738281 "/>
<path style=" stroke:none;fill-rule:nonzero;fill:rgb(78.039216%,98.039216%,45.098039%);fill-opacity:1;" d="M 38.820312 46.957031 C 39.429688 46.957031 39.921875 46.640625 39.921875 46.253906 C 39.921875 45.867188 39.429688 45.550781 38.820312 45.550781 C 38.214844 45.550781 37.722656 45.867188 37.722656 46.253906 C 37.722656 46.640625 38.214844 46.957031 38.820312 46.957031 Z M 38.820312 46.957031 "/>
<path style=" stroke:none;fill-rule:nonzero;fill:rgb(78.039216%,98.039216%,45.098039%);fill-opacity:1;" d="M 36.839844 50.777344 C 37.445312 50.777344 37.9375 50.464844 37.9375 50.078125 C 37.9375 49.6875 37.445312 49.375 36.839844 49.375 C 36.230469 49.375 35.738281 49.6875 35.738281 50.078125 C 35.738281 50.464844 36.230469 50.777344 36.839844 50.777344 Z M 36.839844 50.777344 "/>
<path style=" stroke:none;fill-rule:nonzero;fill:rgb(78.039216%,98.039216%,45.098039%);fill-opacity:1;" d="M 43.710938 47.449219 C 44.316406 47.449219 44.808594 47.132812 44.808594 46.746094 C 44.808594 46.355469 44.316406 46.042969 43.710938 46.042969 C 43.101562 46.042969 42.609375 46.355469 42.609375 46.746094 C 42.609375 47.132812 43.101562 47.449219 43.710938 47.449219 Z M 43.710938 47.449219 "/>
<path style=" stroke:none;fill-rule:nonzero;fill:rgb(78.039216%,98.039216%,45.098039%);fill-opacity:1;" d="M 44.410156 43.558594 C 45.019531 43.558594 45.511719 43.246094 45.511719 42.855469 C 45.511719 42.46875 45.019531 42.152344 44.410156 42.152344 C 43.804688 42.152344 43.308594 42.46875 43.308594 42.855469 C 43.308594 43.246094 43.804688 43.558594 44.410156 43.558594 Z M 44.410156 43.558594 "/>
<path style=" stroke:none;fill-rule:nonzero;fill:rgb(100%,100%,100%);fill-opacity:1;" d="M 15.824219 36.5625 C 16.507812 36.5625 17.0625 36.207031 17.0625 35.769531 C 17.0625 35.328125 16.507812 34.976562 15.824219 34.976562 C 15.136719 34.976562 14.582031 35.328125 14.582031 35.769531 C 14.582031 36.207031 15.136719 36.5625 15.824219 36.5625 Z M 15.824219 36.5625 "/>
<path style="fill:none;stroke-width:1.2;stroke-linecap:round;stroke-linejoin:round;stroke:rgb(78.039216%,98.039216%,45.098039%);stroke-opacity:1;stroke-miterlimit:4;" d="M 145.551667 228.366163 L 171.426667 215.427894 " transform="matrix(0.203804,0,0,0.204698,0,0)"/>
<path style="fill:none;stroke-width:1.2;stroke-linecap:round;stroke-linejoin:round;stroke:rgb(78.039216%,98.039216%,45.098039%);stroke-opacity:1;stroke-miterlimit:4;" d="M 153.889167 231.743852 L 173.5925 221.897029 " transform="matrix(0.203804,0,0,0.204698,0,0)"/>
<path style="fill:none;stroke-width:1.2;stroke-linecap:round;stroke-linejoin:round;stroke:rgb(78.039216%,98.039216%,45.098039%);stroke-opacity:1;stroke-miterlimit:4;" d="M 138.019167 224.358735 L 163.5875 212.126537 " transform="matrix(0.203804,0,0,0.204698,0,0)"/>
<path style="fill:none;stroke-width:1.2;stroke-linecap:round;stroke-linejoin:round;stroke:rgb(78.039216%,98.039216%,45.098039%);stroke-opacity:1;stroke-miterlimit:4;" d="M 180.760833 244.643955 L 190.4975 225.961706 L 215.069167 228.366163 L 217.905833 209.359503 " transform="matrix(0.203804,0,0,0.204698,0,0)"/>
<path style="fill-rule:nonzero;fill:rgb(78.039216%,98.039216%,45.098039%);fill-opacity:1;stroke-width:1.2;stroke-linecap:round;stroke-linejoin:round;stroke:rgb(0%,0%,0%);stroke-opacity:1;stroke-miterlimit:4;" d="M 168.858333 54.710937 L 185.590833 55.970415 L 195.404167 25.094134 L 182.7925 16.20146 L 171.541667 17.002946 L 159.275 28.758069 Z M 168.858333 54.710937 " transform="matrix(0.203804,0,0,0.204698,0,0)"/>
<path style="fill-rule:nonzero;fill:rgb(0%,0%,0%);fill-opacity:1;stroke-width:1.2;stroke-linecap:round;stroke-linejoin:round;stroke:rgb(0%,0%,0%);stroke-opacity:1;stroke-miterlimit:4;" d="M 185.590833 55.970415 L 187.469167 55.550589 L 197.263333 24.674308 L 184.651667 15.781634 L 173.400833 16.564037 L 171.541667 17.002946 L 182.7925 16.20146 L 195.404167 25.094134 Z M 185.590833 55.970415 " transform="matrix(0.203804,0,0,0.204698,0,0)"/>
<path style="fill-rule:nonzero;fill:rgb(0%,0%,0%);fill-opacity:1;stroke-width:1.2;stroke-linecap:round;stroke-linejoin:round;stroke:rgb(0%,0%,0%);stroke-opacity:1;stroke-miterlimit:4;" d="M 175.969167 48.737961 C 181.623333 61.046491 167.708333 72.64895 167.631667 81.694288 C 167.574167 92.571593 178.518333 94.78522 185.61 90.014472 C 194.2925 84.175077 187.0475 74.461834 189.615833 67.477459 C 192.165 60.474001 198.566667 61.561732 197.761667 63.050205 C 194.273333 69.443007 199.314167 77.992188 200.56 85.320056 C 202.476667 96.559939 188.868333 108.391393 173.630833 106.540343 C 149.615 103.639728 147.008333 79.022669 158.7575 66.389728 C 165.025 59.653432 167.190833 52.516393 166.309167 48.737961 C 165.753333 46.390753 175.969167 48.737961 175.969167 48.737961 Z M 175.969167 48.737961 " transform="matrix(0.203804,0,0,0.204698,0,0)"/>
<path style=" stroke:none;fill-rule:nonzero;fill:rgb(100%,100%,100%);fill-opacity:1;" d="M 56.570312 26.742188 C 56.523438 25.050781 56.164062 23.695312 55.484375 22.675781 C 55.257812 22.335938 55.007812 22.035156 54.734375 21.769531 L 55.894531 21.816406 L 53.21875 20.789062 C 53.191406 20.777344 53.160156 20.765625 53.132812 20.753906 L 53.039062 20.71875 C 52.960938 20.691406 52.882812 20.664062 52.800781 20.636719 C 51.683594 20.296875 50.449219 20.292969 49.085938 20.628906 C 47.714844 20.964844 46.492188 21.574219 45.414062 22.453125 C 44.335938 23.335938 43.492188 24.441406 42.882812 25.777344 C 42.273438 27.109375 41.992188 28.625 42.039062 30.316406 C 42.085938 32.003906 42.445312 33.355469 43.117188 34.371094 C 43.753906 35.332031 44.585938 35.992188 45.609375 36.355469 L 48.191406 37.347656 L 47.765625 36.675781 C 48.324219 36.664062 48.910156 36.582031 49.515625 36.429688 C 50.878906 36.09375 52.101562 35.488281 53.183594 34.609375 C 54.265625 33.726562 55.109375 32.617188 55.722656 31.285156 C 56.335938 29.949219 56.617188 28.433594 56.570312 26.742188 Z M 52.457031 30.308594 C 52.195312 31.070312 51.808594 31.691406 51.296875 32.175781 C 50.785156 32.660156 50.160156 32.992188 49.425781 33.171875 C 48.699219 33.351562 48.066406 33.328125 47.53125 33.101562 C 46.996094 32.875 46.578125 32.449219 46.28125 31.828125 C 45.980469 31.207031 45.820312 30.394531 45.789062 29.394531 C 45.761719 28.390625 45.878906 27.511719 46.140625 26.75 C 46.402344 25.992188 46.789062 25.367188 47.304688 24.882812 C 47.820312 24.398438 48.445312 24.066406 49.171875 23.886719 C 49.90625 23.707031 50.539062 23.730469 51.070312 23.957031 C 51.601562 24.183594 52.019531 24.609375 52.316406 25.230469 C 52.617188 25.855469 52.78125 26.664062 52.808594 27.667969 C 52.835938 28.667969 52.71875 29.550781 52.457031 30.308594 Z M 52.457031 30.308594 "/>
<path style=" stroke:none;fill-rule:nonzero;fill:rgb(100%,100%,100%);fill-opacity:1;" d="M 44.75 24.8125 C 46.640625 21.050781 50.351562 20.410156 50.351562 20.410156 C 50.351562 20.410156 46.371094 21.128906 45.078125 22.496094 C 43.777344 23.859375 43.675781 24.28125 43.675781 24.28125 L 44.753906 24.8125 Z M 44.75 24.8125 "/>
<path style="fill:none;stroke-width:1.2;stroke-linecap:round;stroke-linejoin:round;stroke:rgb(0%,0%,0%);stroke-opacity:1;stroke-miterlimit:4;" d="M 277.571667 130.642162 C 277.341667 122.379226 275.578333 115.757428 272.243333 110.776767 C 271.131667 109.116547 269.905 107.647157 268.563333 106.349513 L 274.255833 106.578509 L 261.126667 101.559682 C 260.9925 101.502433 260.839167 101.445184 260.705 101.387935 L 260.245 101.216189 C 259.861667 101.082608 259.478333 100.949027 259.075833 100.815446 C 253.594167 99.155225 247.5375 99.136142 240.848333 100.77728 C 234.120833 102.418417 228.121667 105.395364 222.831667 109.689037 C 217.541667 114.001793 213.401667 119.40228 210.411667 125.928663 C 207.421667 132.435963 206.041667 139.840164 206.271667 148.103099 C 206.501667 156.346952 208.265 162.949667 211.561667 167.911245 C 214.685833 172.605661 218.768333 175.830686 223.79 177.605405 L 236.459167 182.452485 L 234.37 179.17021 C 237.110833 179.112961 239.985833 178.712218 242.956667 177.967982 C 249.645833 176.326844 255.645 173.368981 260.954167 169.075307 C 266.263333 164.762551 270.403333 159.342982 273.4125 152.835681 C 276.421667 146.309298 277.801667 138.905097 277.571667 130.642162 Z M 257.389167 148.064933 C 256.105 151.786117 254.2075 154.820312 251.696667 157.186603 C 249.185833 159.552894 246.119167 161.174949 242.515833 162.052766 C 238.950833 162.930584 235.845833 162.816086 233.22 161.709273 C 230.594167 160.602459 228.543333 158.522413 227.086667 155.488217 C 225.610833 152.454022 224.825 148.484759 224.671667 143.599513 C 224.5375 138.695184 225.1125 134.401511 226.396667 130.680328 C 227.680833 126.978227 229.578333 123.924949 232.108333 121.558658 C 234.638333 119.192367 237.705 117.570312 241.27 116.692495 C 244.873333 115.814677 247.978333 115.929175 250.585 117.035989 C 253.191667 118.142802 255.2425 120.222848 256.699167 123.257044 C 258.175 126.310323 258.98 130.260502 259.114167 135.164831 C 259.248333 140.050077 258.673333 144.362833 257.389167 148.064933 Z M 257.389167 148.064933 " transform="matrix(0.203804,0,0,0.204698,0,0)"/>
<path style="fill-rule:nonzero;fill:rgb(100%,100%,100%);fill-opacity:1;stroke-width:1.2;stroke-linecap:round;stroke-linejoin:round;stroke:rgb(0%,0%,0%);stroke-opacity:1;stroke-miterlimit:4;" d="M 152.509167 164.934298 L 158.47 165.506788 L 147.2575 161.232198 C 146.548333 160.907787 145.781667 160.621542 144.995833 160.373463 L 144.976667 160.35438 C 144.286667 160.144467 143.596667 159.953637 142.849167 159.78189 C 139.993333 159.133069 136.696667 158.865907 132.978333 158.961322 L 126.519167 159.056737 C 124.794167 159.113986 123.260833 159.056737 121.880833 158.904073 C 120.500833 158.751409 119.331667 158.465164 118.354167 158.045338 C 117.376667 157.625512 116.629167 157.053023 116.111667 156.327869 C 115.575 155.583632 115.325833 154.648566 115.345 153.522669 C 115.325833 152.148694 115.709167 150.831967 116.456667 149.57249 C 117.204167 148.313012 118.335 147.187116 119.8875 146.1948 C 121.420833 145.202485 123.356667 144.420082 125.695 143.847592 C 129.221667 142.988858 131.9625 143.084273 133.898333 144.114754 C 135.2975 144.858991 136.275 146.023053 136.830833 147.587859 L 137.31 149.610656 L 150.65 154.724898 L 152.815833 146.175717 L 151.723333 146.080302 L 154.598333 145.374232 C 154.425833 140.927894 153.199167 137.26396 150.956667 134.363345 L 155.748333 133.714524 L 143.5775 129.001025 C 143.558333 129.001025 143.539167 128.981942 143.52 128.981942 L 143.500833 128.962859 C 142.561667 128.619365 141.545833 128.33312 140.4725 128.104124 C 136.16 127.169057 131.1 127.417136 125.311667 128.848361 C 119.6575 130.222336 114.635833 132.435963 110.265833 135.489242 C 105.895833 138.523438 102.503333 142.091957 100.088333 146.213883 C 97.673333 150.316726 96.561667 154.705815 96.715 159.342982 C 96.83 165.048796 98.804167 169.113473 102.618333 171.537013 C 103.6725 172.204918 104.8225 172.777408 106.0875 173.254483 L 118.488333 177.987065 L 114.4825 174.952869 C 115.6325 175.029201 116.84 175.067367 118.105 175.048284 L 125.963333 174.971952 C 128.704167 174.933786 130.965833 175.08645 132.748333 175.391778 C 134.530833 175.716189 135.8725 176.269595 136.754167 177.071081 C 137.635833 177.872567 138.095833 178.998463 138.153333 180.410605 C 138.1725 181.918161 137.750833 183.387551 136.85 184.78061 C 135.949167 186.192751 134.665 187.433145 132.959167 188.501793 C 131.2725 189.589524 129.2025 190.429175 126.7875 191.020748 C 124.123333 191.66957 121.785 191.822234 119.753333 191.47874 C 117.740833 191.135246 116.130833 190.295594 114.9425 188.978868 C 113.754167 187.643058 113.045 185.772925 112.834167 183.387551 L 95.545833 187.623975 C 95.795 193.482454 97.251667 198.005123 99.915833 201.211066 C 101.583333 203.21478 103.653333 204.741419 106.0875 205.771901 L 106.106667 205.771901 C 106.49 205.943648 106.873333 206.096311 107.275833 206.229892 L 119.4275 210.886142 L 118.8525 207.393955 C 121.535833 207.184042 124.3725 206.72605 127.42 205.981814 C 133.63 204.455174 138.939167 202.241547 143.29 199.340932 C 147.66 196.459401 150.975833 193.024462 153.2375 189.0552 C 155.499167 185.066855 156.591667 180.715932 156.476667 175.945184 C 156.361667 172.949155 155.786667 170.353868 154.713333 168.178407 C 154.138333 166.976178 153.390833 165.888448 152.528333 164.934298 Z M 152.509167 164.934298 " transform="matrix(0.203804,0,0,0.204698,0,0)"/>
<path style=" stroke:none;fill-rule:nonzero;fill:rgb(0%,0%,0%);fill-opacity:1;" d="M 46.105469 25.859375 L 43.203125 24.8125 C 43.203125 24.8125 42.476562 26.390625 42.238281 27.796875 C 41.996094 29.199219 41.753906 32.8125 43.261719 34.578125 C 44.773438 36.34375 46.429688 36.667969 46.429688 36.667969 L 47.554688 37.101562 Z M 46.105469 25.859375 "/>
<path style="fill-rule:nonzero;fill:rgb(0%,0%,0%);fill-opacity:1;stroke-width:1.2;stroke-linecap:round;stroke-linejoin:round;stroke:rgb(0%,0%,0%);stroke-opacity:1;stroke-miterlimit:4;" d="M 171.158333 202.890369 L 157.818333 197.79521 L 155.748333 122.646388 L 169.088333 127.741547 Z M 171.158333 202.890369 " transform="matrix(0.203804,0,0,0.204698,0,0)"/>
<path style="fill-rule:nonzero;fill:rgb(78.039216%,98.039216%,45.098039%);fill-opacity:1;stroke-width:1.2;stroke-linecap:round;stroke-linejoin:round;stroke:rgb(0%,0%,0%);stroke-opacity:1;stroke-miterlimit:4;" d="M 150.65 154.724898 C 150.324167 152.091445 149.193333 150.259477 147.238333 149.209913 C 145.283333 148.179431 142.5425 148.103099 139.035 148.961834 C 136.696667 149.534324 134.760833 150.316726 133.208333 151.309042 C 131.675 152.301358 130.525 153.427254 129.7775 154.667649 C 129.03 155.927126 128.665833 157.243852 128.685 158.617828 C 128.665833 159.762807 128.915 160.697874 129.4325 161.423028 C 129.95 162.167264 130.716667 162.739754 131.694167 163.15958 C 132.671667 163.560323 133.840833 163.846568 135.220833 163.999232 C 136.600833 164.151895 138.134167 164.209144 139.84 164.170978 L 146.318333 164.056481 C 150.036667 163.961066 153.314167 164.24731 156.189167 164.896132 C 159.064167 165.544954 161.479167 166.556352 163.4725 167.949411 C 165.446667 169.323386 166.98 171.117188 168.034167 173.292649 C 169.1075 175.46811 169.6825 178.063397 169.7975 181.059426 C 169.9125 185.811091 168.82 190.181096 166.558333 194.150359 C 164.296667 198.138704 160.980833 201.573642 156.610833 204.455174 C 152.26 207.336706 146.950833 209.550333 140.740833 211.076972 C 134.4925 212.603612 129.010833 213.004355 124.315 212.260118 C 119.619167 211.515881 115.939167 209.53125 113.255833 206.325307 C 110.5725 203.119365 109.115833 198.577613 108.866667 192.719134 L 126.155 188.501793 C 126.365833 190.887167 127.075 192.738217 128.263333 194.074027 C 129.451667 195.409836 131.061667 196.249488 133.093333 196.592982 C 135.125 196.936475 137.463333 196.764728 140.108333 196.115907 C 142.5425 195.524334 144.593333 194.684682 146.299167 193.616035 C 147.985833 192.528304 149.289167 191.28791 150.170833 189.894851 C 151.071667 188.48271 151.5125 187.032403 151.493333 185.505763 C 151.416667 184.093622 150.956667 182.986808 150.075 182.185323 C 149.193333 181.364754 147.870833 180.811347 146.069167 180.486936 C 144.286667 180.181609 142.025 180.048028 139.284167 180.067111 L 131.425833 180.143443 C 124.928333 180.238858 119.753333 179.074795 115.958333 176.651255 C 112.144167 174.208632 110.17 170.143955 110.035833 164.43814 C 109.8825 159.800973 111.013333 155.430968 113.428333 151.309042 C 115.824167 147.206199 119.216667 143.637679 123.586667 140.584401 C 127.956667 137.550205 132.978333 135.336578 138.651667 133.943519 C 144.44 132.531378 149.5 132.283299 153.8125 133.199283 C 158.125 134.134349 161.5175 136.080815 163.970833 139.038678 C 166.424167 142.015625 167.746667 145.832223 167.919167 150.488473 Z M 150.65 154.724898 " transform="matrix(0.203804,0,0,0.204698,0,0)"/>
<path style="fill-rule:nonzero;fill:rgb(78.039216%,98.039216%,45.098039%);fill-opacity:1;stroke-width:1.2;stroke-linecap:round;stroke-linejoin:round;stroke:rgb(0%,0%,0%);stroke-opacity:1;stroke-miterlimit:4;" d="M 171.158333 202.890369 L 169.088333 127.741547 L 221.164167 114.994109 L 221.585833 129.745261 L 187.545833 138.084529 L 187.9675 153.484503 L 217.0625 146.366547 L 217.503333 161.155866 L 188.37 168.273822 L 188.791667 183.731045 L 222.831667 175.391778 L 223.234167 190.14293 Z M 171.158333 202.890369 " transform="matrix(0.203804,0,0,0.204698,0,0)"/>
<path style="fill-rule:nonzero;fill:rgb(78.039216%,98.039216%,45.098039%);fill-opacity:1;stroke-width:1.2;stroke-linecap:round;stroke-linejoin:round;stroke:rgb(0%,0%,0%);stroke-opacity:1;stroke-miterlimit:4;" d="M 290.911667 135.756404 C 291.141667 144.019339 289.7425 151.404457 286.7525 157.93084 C 283.743333 164.457223 279.584167 169.876793 274.275 174.170466 C 268.985 178.464139 262.985833 181.441086 256.296667 183.082223 C 249.588333 184.723361 243.5125 184.704278 238.05 183.005891 C 232.5875 181.307505 228.2175 177.987065 224.901667 173.006404 C 221.585833 168.044826 219.8225 161.442111 219.5925 153.198258 C 219.381667 144.935323 220.761667 137.550205 223.751667 131.023822 C 226.741667 124.516522 230.881667 119.096952 236.171667 114.803279 C 241.461667 110.490523 247.460833 107.532659 254.169167 105.872439 C 260.858333 104.250384 266.934167 104.250384 272.396667 105.929687 C 277.878333 107.589908 282.2675 110.910348 285.583333 115.891009 C 288.899167 120.852587 290.681667 127.474385 290.911667 135.737321 Z M 272.454167 140.25999 C 272.32 135.374744 271.515 131.405482 270.058333 128.371286 C 268.5825 125.33709 266.550833 123.257044 263.925 122.150231 C 261.318333 121.043417 258.213333 120.928919 254.61 121.806737 C 251.045 122.684554 247.978333 124.306609 245.448333 126.6729 C 242.918333 129.039191 241.020833 132.073386 239.736667 135.79457 C 238.4525 139.49667 237.8775 143.809426 238.030833 148.694672 C 238.165 153.599001 238.950833 157.54918 240.426667 160.602459 C 241.883333 163.636655 243.934167 165.716701 246.56 166.823514 C 249.185833 167.930328 252.290833 168.044826 255.855833 167.167008 C 259.459167 166.289191 262.525833 164.667136 265.036667 162.300845 C 267.5475 159.934554 269.464167 156.900359 270.729167 153.179175 C 272.013333 149.457992 272.588333 145.164319 272.454167 140.279073 Z M 272.454167 140.25999 " transform="matrix(0.203804,0,0,0.204698,0,0)"/>
<path style="fill-rule:nonzero;fill:rgb(100%,100%,100%);fill-opacity:1;stroke-width:1.2;stroke-linecap:round;stroke-linejoin:round;stroke:rgb(0%,0%,0%);stroke-opacity:1;stroke-miterlimit:4;" d="M 155.748333 122.646388 L 169.088333 127.741547 L 221.164167 114.994109 L 207.824167 109.89895 Z M 155.748333 122.646388 " transform="matrix(0.203804,0,0,0.204698,0,0)"/>
<path style="fill-rule:nonzero;fill:rgb(0%,0%,0%);fill-opacity:1;stroke-width:1.2;stroke-linecap:round;stroke-linejoin:round;stroke:rgb(0%,0%,0%);stroke-opacity:1;stroke-miterlimit:4;" d="M 203.7225 141.252305 L 217.0625 146.366547 L 187.9675 153.484503 L 187.9675 145.126153 Z M 203.7225 141.252305 " transform="matrix(0.203804,0,0,0.204698,0,0)"/>
<path style="fill-rule:nonzero;fill:rgb(0%,0%,0%);fill-opacity:1;stroke-width:1.2;stroke-linecap:round;stroke-linejoin:round;stroke:rgb(0%,0%,0%);stroke-opacity:1;stroke-miterlimit:4;" d="M 209.491667 170.277536 L 222.831667 175.391778 L 188.791667 183.731045 L 188.561667 175.410861 Z M 209.491667 170.277536 " transform="matrix(0.203804,0,0,0.204698,0,0)"/>
<path style=" stroke:none;fill-rule:nonzero;fill:rgb(78.039216%,98.039216%,45.098039%);fill-opacity:1;" d="M 19.46875 38.40625 L 22.1875 39.449219 L 25.710938 38.585938 L 22.996094 37.539062 Z M 19.46875 38.40625 "/>
<path style=" stroke:none;fill-rule:nonzero;fill:rgb(100%,100%,100%);fill-opacity:1;" d="M 20.453125 38.785156 L 23.304688 37.722656 L 22.996094 37.539062 L 19.46875 38.40625 Z M 20.453125 38.785156 "/>
<path style="fill:none;stroke-width:1.2;stroke-linecap:round;stroke-linejoin:round;stroke:rgb(0%,0%,0%);stroke-opacity:1;stroke-miterlimit:4;" d="M 95.526667 187.623975 L 108.866667 192.719134 L 126.155 188.501793 L 112.834167 183.387551 Z M 95.526667 187.623975 " transform="matrix(0.203804,0,0,0.204698,0,0)"/>
<path style=" stroke:none;fill-rule:nonzero;fill:rgb(0%,0%,0%);fill-opacity:1;" d="M 25.835938 39.101562 C 25.835938 39.101562 26.476562 41.195312 29.355469 39.828125 C 30.75 39.164062 30.972656 38.441406 30.867188 37.894531 C 30.757812 37.3125 30.191406 37.011719 30.191406 37.011719 L 28.152344 36.863281 C 28.152344 36.863281 28.457031 37.53125 27.488281 38.289062 C 26.515625 39.046875 25.835938 39.101562 25.835938 39.101562 Z M 25.835938 39.101562 "/>
<path style=" stroke:none;fill-rule:nonzero;fill:rgb(0%,0%,0%);fill-opacity:1;" d="M 26.226562 32.550781 C 26.257812 33.09375 26.339844 33.566406 28.730469 33.601562 C 31.125 33.632812 31.742188 33.667969 31.742188 33.667969 L 29.199219 32.726562 L 27.496094 32.535156 Z M 26.226562 32.550781 "/>
<path style=" stroke:none;fill-rule:nonzero;fill:rgb(0%,0%,0%);fill-opacity:1;" d="M 27.984375 30.625 L 30.628906 31.644531 C 30.628906 31.644531 30.628906 30.820312 29.785156 30.5 C 28.941406 30.183594 27.984375 30.625 27.984375 30.625 Z M 27.984375 30.625 "/>
<path style=" stroke:none;fill-rule:nonzero;fill:rgb(0%,0%,0%);fill-opacity:1;" d="M 19.46875 38.40625 L 22.1875 39.449219 C 22.1875 39.449219 22.160156 40.332031 22.554688 41.34375 C 22.953125 42.355469 23.804688 42.878906 23.804688 42.878906 L 21.300781 41.964844 C 21.300781 41.964844 20.085938 41.273438 19.820312 40.25 C 19.550781 39.226562 19.472656 38.40625 19.472656 38.40625 Z M 19.46875 38.40625 "/>
<path style=" stroke:none;fill-rule:nonzero;fill:rgb(0%,0%,0%);fill-opacity:1;" d="M 52.074219 24.890625 C 52.96875 26.28125 52.882812 28.398438 52.65625 29.574219 C 52.429688 30.75 51.730469 32.070312 50.855469 32.535156 C 49.980469 33 49.195312 33.222656 49.195312 33.222656 C 49.195312 33.222656 50.261719 35.140625 53.054688 33.886719 C 55.84375 32.636719 55.671875 28.351562 55.339844 27.15625 C 55.007812 25.957031 54.34375 25.203125 53.789062 25.003906 C 52.980469 24.707031 52.074219 24.890625 52.074219 24.890625 Z M 52.074219 24.890625 "/>
<path style=" stroke:none;fill-rule:nonzero;fill:rgb(100%,100%,100%);fill-opacity:1;" d="M 35.539062 10.082031 C 36.691406 12.601562 33.855469 14.976562 33.839844 16.824219 C 33.828125 19.050781 36.058594 19.503906 37.503906 18.527344 C 39.273438 17.335938 37.886719 15.394531 38.410156 13.964844 C 38.929688 12.53125 40.167969 12.609375 39.976562 13.011719 C 39.34375 14.359375 40.292969 16.066406 40.550781 17.566406 C 40.941406 19.871094 38.167969 22.292969 35.0625 21.914062 C 30.167969 21.316406 29.632812 16.28125 32.03125 13.691406 C 33.308594 12.3125 33.75 10.851562 33.570312 10.082031 C 33.457031 9.597656 35.535156 10.082031 35.535156 10.082031 Z M 35.539062 10.082031 "/>
<path style=" stroke:none;fill-rule:nonzero;fill:rgb(78.039216%,98.039216%,45.098039%);fill-opacity:1;" d="M 33.226562 11.941406 C 30.628906 15.75 31.074219 18.144531 31.742188 19.324219 C 32.410156 20.503906 33.191406 21.3125 33.902344 21.664062 C 34.609375 22.019531 31.339844 21.160156 30.804688 18.515625 C 30.269531 15.871094 31.417969 14.523438 31.855469 13.894531 C 32.289062 13.265625 33.226562 11.941406 33.226562 11.941406 Z M 33.226562 11.941406 "/>
<path style=" stroke:none;fill-rule:nonzero;fill:rgb(78.039216%,98.039216%,45.098039%);fill-opacity:1;" d="M 39.976562 12.679688 C 38.109375 14.054688 38.410156 17.132812 38.410156 17.132812 C 38.410156 17.132812 37.957031 15.328125 38.410156 13.964844 C 38.863281 12.601562 39.976562 12.683594 39.976562 12.683594 Z M 39.976562 12.679688 "/>
<path style="fill:none;stroke-width:1.2;stroke-linecap:round;stroke-linejoin:round;stroke:rgb(0%,0%,0%);stroke-opacity:1;stroke-miterlimit:4;" d="M 174.378333 49.253202 C 180.0325 61.561732 166.1175 73.164191 166.040833 82.190446 C 165.983333 93.067751 176.9275 95.281378 184.019167 90.51063 C 192.701667 84.690318 185.8975 75.206071 188.465833 68.221696 C 191.015 61.218238 197.090833 61.599898 196.151667 63.565446 C 193.046667 70.149078 197.704167 78.488345 198.969167 85.816214 C 200.885833 97.075179 187.2775 108.906634 172.04 107.055584 C 148.024167 104.135886 145.398333 79.53791 157.166667 66.885886 C 163.434167 60.14959 165.6 53.012551 164.718333 49.253202 C 164.1625 46.886911 174.359167 49.253202 174.359167 49.253202 Z M 174.378333 49.253202 " transform="matrix(0.203804,0,0,0.204698,0,0)"/>
<path style="fill-rule:nonzero;fill:rgb(0%,0%,0%);fill-opacity:1;stroke-width:1.2;stroke-linecap:round;stroke-linejoin:round;stroke:rgb(0%,0%,0%);stroke-opacity:1;stroke-miterlimit:4;" d="M 173.899167 56.466573 L 184.4025 53.222464 L 192.2225 25.991035 L 181.949167 18.453253 L 173.113333 19.025743 L 167.018333 19.941726 Z M 173.899167 56.466573 " transform="matrix(0.203804,0,0,0.204698,0,0)"/>
<path style="fill:none;stroke-width:1.2;stroke-linecap:round;stroke-linejoin:round;stroke:rgb(0%,0%,0%);stroke-opacity:1;stroke-miterlimit:4;" d="M 187.009167 16.77395 L 187.009167 24.617059 " transform="matrix(0.203804,0,0,0.204698,0,0)"/>
<path style="fill:none;stroke-width:1.2;stroke-linecap:round;stroke-linejoin:round;stroke:rgb(78.039216%,98.039216%,45.098039%);stroke-opacity:1;stroke-miterlimit:4;" d="M 187.009167 22.174436 L 187.009167 25.304047 " transform="matrix(0.203804,0,0,0.204698,0,0)"/>
<path style="fill:none;stroke-width:1.2;stroke-linecap:round;stroke-linejoin:round;stroke:rgb(78.039216%,98.039216%,45.098039%);stroke-opacity:1;stroke-miterlimit:4;" d="M 183.386667 19.464652 L 183.386667 25.838371 " transform="matrix(0.203804,0,0,0.204698,0,0)"/>
<path style="fill:none;stroke-width:1.2;stroke-linecap:round;stroke-linejoin:round;stroke:rgb(78.039216%,98.039216%,45.098039%);stroke-opacity:1;stroke-miterlimit:4;" d="M 179.745 18.453253 L 179.745 26.487193 " transform="matrix(0.203804,0,0,0.204698,0,0)"/>
<path style="fill-rule:nonzero;fill:rgb(78.039216%,98.039216%,45.098039%);fill-opacity:1;stroke-width:1.2;stroke-linecap:round;stroke-linejoin:round;stroke:rgb(0%,0%,0%);stroke-opacity:1;stroke-miterlimit:4;" d="M 154.56 57.955046 L 171.2925 59.233607 L 181.105833 28.357326 L 168.494167 19.464652 L 157.243333 20.247054 L 144.976667 30.685451 Z M 154.56 57.955046 " transform="matrix(0.203804,0,0,0.204698,0,0)"/>
<path style="fill-rule:nonzero;fill:rgb(78.039216%,98.039216%,45.098039%);fill-opacity:1;stroke-width:1.2;stroke-linecap:round;stroke-linejoin:round;stroke:rgb(0%,0%,0%);stroke-opacity:1;stroke-miterlimit:4;" d="M 171.2925 59.233607 L 173.170833 58.794698 L 182.984167 27.918417 L 170.3725 19.025743 L 159.1025 19.827228 L 157.243333 20.247054 L 168.494167 19.464652 L 181.105833 28.357326 Z M 171.2925 59.233607 " transform="matrix(0.203804,0,0,0.204698,0,0)"/>
<path style=" stroke:none;fill-rule:nonzero;fill:rgb(0%,0%,0%);fill-opacity:1;" d="M 30.714844 9.773438 L 32.667969 11.953125 L 33.3125 12 L 30.355469 8.632812 Z M 30.714844 9.773438 "/>
<path style=" stroke:none;fill-rule:nonzero;fill:rgb(0%,0%,0%);fill-opacity:1;" d="M 29.78125 6.957031 L 34.328125 12.039062 L 34.914062 12.140625 L 29.761719 6.191406 L 29.550781 6.296875 Z M 29.78125 6.957031 "/>
<path style=" stroke:none;fill-rule:nonzero;fill:rgb(0%,0%,0%);fill-opacity:1;" d="M 30.21875 5.792969 L 35.207031 11.363281 L 35.316406 10.851562 L 30.550781 5.421875 Z M 30.21875 5.792969 "/>
<path style=" stroke:none;fill-rule:nonzero;fill:rgb(0%,0%,0%);fill-opacity:1;" d="M 31.058594 4.886719 L 35.578125 9.9375 L 35.730469 9.460938 L 31.433594 4.566406 Z M 31.058594 4.886719 "/>
<path style=" stroke:none;fill-rule:nonzero;fill:rgb(0%,0%,0%);fill-opacity:1;" d="M 32.105469 4.203125 L 36.03125 8.589844 L 36.183594 8.105469 L 32.621094 4.042969 Z M 32.105469 4.203125 "/>
<path style=" stroke:none;fill-rule:nonzero;fill:rgb(0%,0%,0%);fill-opacity:1;" d="M 33.574219 4.039062 L 36.453125 7.253906 L 36.632812 6.679688 L 34.179688 3.984375 Z M 33.574219 4.039062 "/>
<path style="fill-rule:nonzero;fill:rgb(100%,100%,100%);fill-opacity:1;stroke-width:1.2;stroke-linecap:round;stroke-linejoin:round;stroke:rgb(0%,0%,0%);stroke-opacity:1;stroke-miterlimit:4;" d="M 162.265 38.547643 C 164.890833 38.547643 167.018333 36.314933 167.018333 33.528817 C 167.018333 30.761783 164.890833 28.50999 162.265 28.50999 C 159.639167 28.50999 157.530833 30.761783 157.530833 33.528817 C 157.530833 36.314933 159.639167 38.547643 162.265 38.547643 Z M 162.265 38.547643 " transform="matrix(0.203804,0,0,0.204698,0,0)"/>
<path style=" stroke:none;fill-rule:nonzero;fill:rgb(0%,0%,0%);fill-opacity:1;" d="M 33.070312 7.394531 C 33.347656 7.394531 33.570312 7.15625 33.570312 6.863281 C 33.570312 6.574219 33.347656 6.335938 33.070312 6.335938 C 32.796875 6.335938 32.574219 6.574219 32.574219 6.863281 C 32.574219 7.15625 32.796875 7.394531 33.070312 7.394531 Z M 33.070312 7.394531 "/>
<path style=" stroke:none;fill-rule:nonzero;fill:rgb(0%,0%,0%);fill-opacity:1;" d="M 35.644531 4.90625 L 36.820312 6.089844 L 36.910156 5.804688 Z M 35.644531 4.90625 "/>
<path style="fill:none;stroke-width:1.2;stroke-linecap:round;stroke-linejoin:round;stroke:rgb(0%,0%,0%);stroke-opacity:1;stroke-miterlimit:4;" d="M 146.145833 149 L 173.65 91.598361 " transform="matrix(0.203804,0,0,0.204698,0,0)"/>
<path style="fill:none;stroke-width:1.2;stroke-linecap:round;stroke-linejoin:round;stroke:rgb(0%,0%,0%);stroke-opacity:1;stroke-miterlimit:4;" d="M 157.2625 100.739114 L 134.530833 127.550717 " transform="matrix(0.203804,0,0,0.204698,0,0)"/>
<path style="fill:none;stroke-width:1.2;stroke-linecap:round;stroke-linejoin:round;stroke:rgb(0%,0%,0%);stroke-opacity:1;stroke-miterlimit:4;" d="M 179.438333 92.304431 C 181.144167 94.842469 190.344167 136.061732 189.75 137.531122 " transform="matrix(0.203804,0,0,0.204698,0,0)"/>
<path style="fill:none;stroke-width:1.2;stroke-linecap:round;stroke-linejoin:round;stroke:rgb(0%,0%,0%);stroke-opacity:1;stroke-miterlimit:4;" d="M 173.554167 107.189165 L 172.155 118.619877 " transform="matrix(0.203804,0,0,0.204698,0,0)"/>
<path style="fill:none;stroke-width:1.2;stroke-linecap:round;stroke-linejoin:round;stroke:rgb(0%,0%,0%);stroke-opacity:1;stroke-miterlimit:4;" d="M 185.284167 89.556481 C 186.4725 89.174821 245.4675 126.6729 245.4675 126.6729 " transform="matrix(0.203804,0,0,0.204698,0,0)"/>
<path style="fill:none;stroke-width:1.2;stroke-linecap:round;stroke-linejoin:round;stroke:rgb(0%,0%,0%);stroke-opacity:1;stroke-miterlimit:4;" d="M 194.9825 99.555968 L 214.283333 112.360656 " transform="matrix(0.203804,0,0,0.204698,0,0)"/>
</g>
</svg>
